<?xml version="1.0" encoding="utf-8" ?>
<svg baseProfile="tiny" height="100%" version="1.2" width="100%" xmlns="http://www.w3.org/2000/svg" xmlns:ev="http://www.w3.org/2001/xml-events" xmlns:xlink="http://www.w3.org/1999/xlink"><defs /><path d="M 166,114 L 165,115 L 161,115 L 160,116 L 158,116 L 157,117 L 154,117 L 153,118 L 152,118 L 151,119 L 149,119 L 148,120 L 147,120 L 146,121 L 145,121 L 144,122 L 143,122 L 142,123 L 141,123 L 139,125 L 138,125 L 136,127 L 135,127 L 132,130 L 131,130 L 124,137 L 123,137 L 123,138 L 117,144 L 117,145 L 114,148 L 114,149 L 112,151 L 112,152 L 111,153 L 111,154 L 109,156 L 109,157 L 108,158 L 108,159 L 107,160 L 107,161 L 106,162 L 106,164 L 105,165 L 105,166 L 104,167 L 104,169 L 103,170 L 103,172 L 102,173 L 102,176 L 101,177 L 101,181 L 100,182 L 100,202 L 101,203 L 101,208 L 102,209 L 102,213 L 103,214 L 103,217 L 104,218 L 104,221 L 105,222 L 105,224 L 106,225 L 106,227 L 107,228 L 107,230 L 108,231 L 108,232 L 109,233 L 109,235 L 110,236 L 110,237 L 111,238 L 111,240 L 112,241 L 112,242 L 113,243 L 113,244 L 114,245 L 114,246 L 115,247 L 115,248 L 116,249 L 116,250 L 117,251 L 117,252 L 118,253 L 118,254 L 119,255 L 119,256 L 120,257 L 120,258 L 121,259 L 121,260 L 123,262 L 123,263 L 124,264 L 124,265 L 126,267 L 126,268 L 127,269 L 127,270 L 129,272 L 129,273 L 131,275 L 131,276 L 133,278 L 133,279 L 135,281 L 135,282 L 138,285 L 138,286 L 140,288 L 140,289 L 143,292 L 143,293 L 146,296 L 146,297 L 150,301 L 150,302 L 155,307 L 155,308 L 159,312 L 159,313 L 165,319 L 165,320 L 174,329 L 174,330 L 209,365 L 210,365 L 220,375 L 221,375 L 228,382 L 229,382 L 235,388 L 236,388 L 241,393 L 242,393 L 246,397 L 247,397 L 250,400 L 251,400 L 254,397 L 255,397 L 259,393 L 260,393 L 265,388 L 266,388 L 272,382 L 273,382 L 280,375 L 281,375 L 291,365 L 292,365 L 328,329 L 328,328 L 336,320 L 336,319 L 342,313 L 342,312 L 347,307 L 347,306 L 351,302 L 351,301 L 355,297 L 355,296 L 358,293 L 358,292 L 361,289 L 361,288 L 363,286 L 363,285 L 366,282 L 366,281 L 368,279 L 368,278 L 370,276 L 370,275 L 372,273 L 372,272 L 374,270 L 374,269 L 375,268 L 375,267 L 377,265 L 377,264 L 378,263 L 378,262 L 380,260 L 380,259 L 381,258 L 381,257 L 382,256 L 382,255 L 383,254 L 383,253 L 384,252 L 384,251 L 385,250 L 385,249 L 386,248 L 386,247 L 387,246 L 387,245 L 388,244 L 388,243 L 389,242 L 389,241 L 390,240 L 390,239 L 391,238 L 391,236 L 392,235 L 392,234 L 393,233 L 393,231 L 394,230 L 394,228 L 395,227 L 395,225 L 396,224 L 396,222 L 397,221 L 397,219 L 398,218 L 398,214 L 399,213 L 399,210 L 400,209 L 400,203 L 401,202 L 401,182 L 400,181 L 400,177 L 399,176 L 399,173 L 398,172 L 398,170 L 397,169 L 397,167 L 396,166 L 396,165 L 395,164 L 395,162 L 394,161 L 394,160 L 393,159 L 393,158 L 392,157 L 392,156 L 390,154 L 390,153 L 389,152 L 389,151 L 387,149 L 387,148 L 384,145 L 384,144 L 378,138 L 378,137 L 377,136 L 376,136 L 369,129 L 368,129 L 366,127 L 365,127 L 363,125 L 362,125 L 360,123 L 359,123 L 358,122 L 357,122 L 356,121 L 355,121 L 354,120 L 353,120 L 352,119 L 350,119 L 349,118 L 348,118 L 347,117 L 344,117 L 343,116 L 341,116 L 340,115 L 336,115 L 335,114 L 317,114 L 316,115 L 312,115 L 311,116 L 309,116 L 308,117 L 306,117 L 305,118 L 303,118 L 302,119 L 301,119 L 300,120 L 298,120 L 296,122 L 295,122 L 294,123 L 293,123 L 292,124 L 291,124 L 288,127 L 287,127 L 285,129 L 284,129 L 269,144 L 269,145 L 265,149 L 265,150 L 263,152 L 263,153 L 261,155 L 261,156 L 259,158 L 259,159 L 257,161 L 257,162 L 256,163 L 256,164 L 255,165 L 255,166 L 253,168 L 253,169 L 252,170 L 252,171 L 251,172 L 250,172 L 249,171 L 249,170 L 248,169 L 248,168 L 246,166 L 246,165 L 245,164 L 245,163 L 244,162 L 244,161 L 242,159 L 242,158 L 240,156 L 240,155 L 238,153 L 238,152 L 236,150 L 236,149 L 232,145 L 232,144 L 217,129 L 216,129 L 213,126 L 212,126 L 210,124 L 209,124 L 208,123 L 207,123 L 206,122 L 205,122 L 203,120 L 201,120 L 200,119 L 199,119 L 198,118 L 196,118 L 195,117 L 193,117 L 192,116 L 190,116 L 189,115 L 185,115 L 184,114 Z" fill="rgb(192,0,0)" stroke="none" /></svg>